<svg width="63" height="63" viewBox="0 0 63 63" fill="none" xmlns="http://www.w3.org/2000/svg">
<path d="M44.2625 39.8913L54.9674 55.4123L45.358 62.118L34.5094 46.0197C31.9353 46.0197 31.065 46.0197 28.4937 46.0197L17.645 62.118L8.03563 55.4123L18.7406 39.8913C17.9943 37.6129 17.6901 36.6835 16.9438 34.4051L0.2146 28.5949L4.23636 18.3152L20.7149 23.6916C22.7117 22.244 23.4721 21.692 25.4689 20.2444V0.884766H37.537V20.2444C39.5338 21.692 40.2942 22.244 42.291 23.6916L58.7695 18.3152L62.7913 28.5949L46.0621 34.4051C45.3158 36.6835 45.0116 37.6129 44.2653 39.8913H44.2625Z" fill="#1E1E1E"/>
</svg>
